<svg width="80" height="40" viewBox="0 0 80 40" fill="none" xmlns="http://www.w3.org/2000/svg">
<rect width="80" height="40" rx="7" fill="#9757D7"/>
<path d="M18.5001 18.1128V22.8749" stroke="white" stroke-linecap="round" stroke-linejoin="round"/>
<path d="M20.8833 20.4941H16.1166" stroke="white" stroke-linecap="round" stroke-linejoin="round"/>
<path fill-rule="evenodd" clip-rule="evenodd" d="M21.5457 14H15.4543C13.331 14 12 15.5029 12 17.6304V23.3696C12 25.4971 13.3248 27 15.4543 27H21.5457C23.6752 27 25 25.4971 25 23.3696V17.6304C25 15.5029 23.6752 14 21.5457 14Z" stroke="white" stroke-linecap="round" stroke-linejoin="round"/>
<path d="M35.368 26L39.464 14.8H41.768L45.864 26H43.688L42.792 23.408H38.424L37.512 26H35.368ZM38.984 21.808H42.232L40.6 17.152L38.984 21.808ZM50.5318 26.192C49.7851 26.192 49.1184 26.0107 48.5318 25.648C47.9451 25.2853 47.4811 24.7893 47.1398 24.16C46.7984 23.5307 46.6278 22.816 46.6278 22.016C46.6278 21.216 46.7984 20.5067 47.1398 19.888C47.4811 19.2587 47.9451 18.768 48.5318 18.416C49.1184 18.0533 49.7851 17.872 50.5318 17.872C51.1291 17.872 51.6518 17.984 52.0998 18.208C52.5478 18.432 52.9104 18.7467 53.1878 19.152V14.48H55.2358V26H53.4118L53.1878 24.864C52.9318 25.216 52.5904 25.5253 52.1638 25.792C51.7478 26.0587 51.2038 26.192 50.5318 26.192ZM50.9638 24.4C51.6251 24.4 52.1638 24.1813 52.5798 23.744C53.0064 23.296 53.2198 22.7253 53.2198 22.032C53.2198 21.3387 53.0064 20.7733 52.5798 20.336C52.1638 19.888 51.6251 19.664 50.9638 19.664C50.3131 19.664 49.7744 19.8827 49.3478 20.32C48.9211 20.7573 48.7078 21.3227 48.7078 22.016C48.7078 22.7093 48.9211 23.28 49.3478 23.728C49.7744 24.176 50.3131 24.4 50.9638 24.4ZM60.9693 26.192C60.2226 26.192 59.5559 26.0107 58.9693 25.648C58.3826 25.2853 57.9186 24.7893 57.5773 24.16C57.2359 23.5307 57.0653 22.816 57.0653 22.016C57.0653 21.216 57.2359 20.5067 57.5773 19.888C57.9186 19.2587 58.3826 18.768 58.9693 18.416C59.5559 18.0533 60.2226 17.872 60.9693 17.872C61.5666 17.872 62.0893 17.984 62.5373 18.208C62.9853 18.432 63.3479 18.7467 63.6253 19.152V14.48H65.6733V26H63.8493L63.6253 24.864C63.3693 25.216 63.0279 25.5253 62.6013 25.792C62.1853 26.0587 61.6413 26.192 60.9693 26.192ZM61.4013 24.4C62.0626 24.4 62.6013 24.1813 63.0173 23.744C63.4439 23.296 63.6573 22.7253 63.6573 22.032C63.6573 21.3387 63.4439 20.7733 63.0173 20.336C62.6013 19.888 62.0626 19.664 61.4013 19.664C60.7506 19.664 60.2119 19.8827 59.7853 20.32C59.3586 20.7573 59.1453 21.3227 59.1453 22.016C59.1453 22.7093 59.3586 23.28 59.7853 23.728C60.2119 24.176 60.7506 24.4 61.4013 24.4Z" fill="white"/>
</svg>
